<svg data-v-b2452d5c="" viewBox="0 0 18 18" xmlns="http://www.w3.org/2000/svg">
    <path d="M7.75065 0.833008C3.93068 0.833008 0.833984 3.92971 0.833984 7.74967C0.833984 11.5696 3.93068 14.6663 7.75065 14.6663C9.42056 14.6663 10.9522 14.0746 12.1474 13.0893L16.0292 16.9711C16.2896 17.2314 16.7117 17.2314 16.9721 16.9711C17.2324 16.7107 17.2324 16.2886 16.9721 16.0283L13.0902 12.1465C14.0755 10.9513 14.6673 9.41958 14.6673 7.74967C14.6673 3.92971 11.5706 0.833008 7.75065 0.833008ZM2.16732 7.74967C2.16732 4.66608 4.66706 2.16634 7.75065 2.16634C10.8342 2.16634 13.334 4.66608 13.334 7.74967C13.334 10.8333 10.8342 13.333 7.75065 13.333C4.66706 13.333 2.16732 10.8333 2.16732 7.74967Z" fill="#868B94"></path>
</svg>