<svg data-v-7e797916="" viewBox="0 0 474 801" fill="none" xmlns="http://www.w3.org/2000/svg">
    <path d="M237.001 295.37C106.561 295.37 0.810547 397.88 0.810547 527.07C0.810547 705.69 237.651 800.49 237.001 800.21C236.351 800.48 473.191 705.69 473.191 527.07C473.191 397.88 367.441 295.37 237.001 295.37ZM237.001 620.85C219.321 620.85 202.031 615.65 187.331 605.92C172.631 596.18 161.181 582.36 154.401 566.18C147.641 550 145.871 532.19 149.321 515.02C152.771 497.84 161.291 482.06 173.791 469.68C186.301 457.29 202.231 448.87 219.581 445.45C236.931 442.03 254.901 443.79 271.241 450.49C287.581 457.19 301.541 468.54 311.361 483.11C321.191 497.67 326.431 514.79 326.431 532.31C326.431 543.94 324.121 555.45 319.631 566.2C315.141 576.95 308.541 586.71 300.241 594.93C291.941 603.15 282.081 609.68 271.221 614.12C260.371 618.57 248.741 620.85 237.001 620.85Z" fill="#FF6F0F"></path> <path d="M290.191 0.209961C235.071 0.209961 196.691 38.35 190.641 83.27C117.141 63.15 59.5605 118.31 59.5605 179.35C59.5605 225.9 91.7806 263.52 134.941 275.72C169.691 285.55 232.231 278.24 232.231 278.24C231.921 263.19 245.921 246.67 267.481 231.63C328.841 188.87 376.881 168.72 384.301 110.41C392.051 49.55 346.311 0.209961 290.171 0.209961H290.181H290.191Z" fill="#00A05B"></path>
</svg>